<svg
    xmlns="http://www.w3.org/2000/svg"
    viewBox="0 -14 229.002 204.001"
    fill="none"
>
  <path
        fill="#ffffff"
        d="M0,166.791L6.806,166.791L6.806,152.802L13.629,152.802C18.845,152.802,21.23,152.403,23.267,151.159C26.248,149.267,28.085,145.583,28.085,141.351C28.085,137.119,26.297,133.634,23.117,131.693C21.031,130.448,18.547,130,13.728,130L0,130ZM6.806,146.28L6.806,136.522L13.728,136.522C15.964,136.522,17.008,136.621,18.05,136.87C20.037,137.418,21.23,139.161,21.23,141.451C21.23,143.243,20.435,144.637,18.995,145.434C17.951,145.981,16.113,146.28,13.431,146.28ZM32.811,166.791L39.419,166.791L39.419,139.21L32.811,139.21ZM32.811,136.223L39.419,136.223L39.419,130L32.811,130ZM65.38,157.73C63.74,160.269,61.853,161.365,59.12,161.365C54.55,161.365,51.122,157.78,51.122,152.951C51.122,148.072,54.351,144.637,58.971,144.637C61.952,144.637,64.039,145.881,65.38,148.421L72.832,148.421C71.888,145.632,70.993,144.189,69.105,142.446C66.423,139.957,62.796,138.563,58.971,138.563C50.824,138.563,44.465,144.886,44.465,153.001C44.465,161.016,51.023,167.438,59.169,167.438C65.628,167.438,70.546,163.904,72.832,157.73ZM91.026,138.563C83.027,138.563,76.47,145.085,76.47,153.001C76.47,160.966,83.027,167.438,91.076,167.438C99.074,167.438,105.73,160.966,105.73,153.2C105.73,144.985,99.322,138.563,91.026,138.563ZM91.076,144.637C95.497,144.637,99.074,148.371,99.074,153.001C99.074,157.631,95.497,161.365,91.125,161.365C86.654,161.365,83.127,157.631,83.127,152.901C83.127,148.371,86.704,144.637,91.076,144.637ZM111.145,166.791L117.951,166.791L117.951,139.21L127.539,166.791L133.103,166.791L142.691,139.21L142.691,166.791L149.497,166.791L149.497,130L140.157,130L130.371,157.88L120.485,130L111.145,130ZM183.533,139.21L177.472,139.21L177.472,142.894C175.187,139.858,172.455,138.563,168.48,138.563C160.333,138.563,154.471,144.687,154.471,153.1C154.471,161.414,160.283,167.438,168.331,167.438C172.206,167.438,174.839,166.243,177.472,163.207L177.472,166.791L183.533,166.791ZM169.176,144.637C173.896,144.637,177.273,148.172,177.273,153.2C177.273,155.191,176.479,157.481,175.286,158.875C173.945,160.518,171.809,161.365,169.275,161.365C164.457,161.365,161.128,158.079,161.128,153.25C161.128,148.221,164.457,144.637,169.176,144.637ZM191.091,139.21L191.091,164.8C191.14,168.534,190.792,169.181,188.358,169.579L188.358,176.001C194.419,175.902,197.897,171.819,197.698,164.949L197.698,139.21ZM191.091,136.223L197.698,136.223L197.698,130L191.091,130ZM229.001,139.21L222.395,139.21L222.395,152.204C222.395,155.888,222.146,157.631,221.351,158.826C220.407,160.469,218.569,161.365,216.334,161.365C214.644,161.365,213.353,160.817,212.459,159.622C211.515,158.427,211.117,156.436,211.117,152.702L211.117,139.21L204.51,139.21L204.51,153.996C204.51,158.676,205.057,161.116,206.597,163.356C208.435,165.995,211.366,167.438,214.993,167.438C218.321,167.438,220.358,166.592,222.892,164.153L222.892,166.791L229.001,166.791Z"
    />
</svg>

  <path
        fill="#ffffff"
        d="M0,166.791L6.806,166.791L6.806,152.802L13.629,152.802C18.845,152.802,21.23,152.403,23.267,151.159C26.248,149.267,28.085,145.583,28.085,141.351C28.085,137.119,26.297,133.634,23.117,131.693C21.031,130.448,18.547,130,13.728,130L0,130ZM6.806,146.28L6.806,136.522L13.728,136.522C15.964,136.522,17.008,136.621,18.05,136.87C20.037,137.418,21.23,139.161,21.23,141.451C21.23,143.243,20.435,144.637,18.995,145.434C17.951,145.981,16.113,146.28,13.431,146.28ZM32.811,166.791L39.419,166.791L39.419,139.21L32.811,139.21ZM32.811,136.223L39.419,136.223L39.419,130L32.811,130ZM65.38,157.73C63.74,160.269,61.853,161.365,59.12,161.365C54.55,161.365,51.122,157.78,51.122,152.951C51.122,148.072,54.351,144.637,58.971,144.637C61.952,144.637,64.039,145.881,65.38,148.421L72.832,148.421C71.888,145.632,70.993,144.189,69.105,142.446C66.423,139.957,62.796,138.563,58.971,138.563C50.824,138.563,44.465,144.886,44.465,153.001C44.465,161.016,51.023,167.438,59.169,167.438C65.628,167.438,70.546,163.904,72.832,157.73ZM91.026,138.563C83.027,138.563,76.47,145.085,76.47,153.001C76.47,160.966,83.027,167.438,91.076,167.438C99.074,167.438,105.73,160.966,105.73,153.2C105.73,144.985,99.322,138.563,91.026,138.563ZM91.076,144.637C95.497,144.637,99.074,148.371,99.074,153.001C99.074,157.631,95.497,161.365,91.125,161.365C86.654,161.365,83.127,157.631,83.127,152.901C83.127,148.371,86.704,144.637,91.076,144.637ZM111.145,166.791L117.951,166.791L117.951,139.21L127.539,166.791L133.103,166.791L142.691,139.21L142.691,166.791L149.497,166.791L149.497,130L140.157,130L130.371,157.88L120.485,130L111.145,130ZM183.533,139.21L177.472,139.21L177.472,142.894C175.187,139.858,172.455,138.563,168.48,138.563C160.333,138.563,154.471,144.687,154.471,153.1C154.471,161.414,160.283,167.438,168.331,167.438C172.206,167.438,174.839,166.243,177.472,163.207L177.472,166.791L183.533,166.791ZM169.176,144.637C173.896,144.637,177.273,148.172,177.273,153.2C177.273,155.191,176.479,157.481,175.286,158.875C173.945,160.518,171.809,161.365,169.275,161.365C164.457,161.365,161.128,158.079,161.128,153.25C161.128,148.221,164.457,144.637,169.176,144.637ZM191.091,139.21L191.091,164.8C191.14,168.534,190.792,169.181,188.358,169.579L188.358,176.001C194.419,175.902,197.897,171.819,197.698,164.949L197.698,139.21ZM191.091,136.223L197.698,136.223L197.698,130L191.091,130ZM229.001,139.21L222.395,139.21L222.395,152.204C222.395,155.888,222.146,157.631,221.351,158.826C220.407,160.469,218.569,161.365,216.334,161.365C214.644,161.365,213.353,160.817,212.459,159.622C211.515,158.427,211.117,156.436,211.117,152.702L211.117,139.21L204.51,139.21L204.51,153.996C204.51,158.676,205.057,161.116,206.597,163.356C208.435,165.995,211.366,167.438,214.993,167.438C218.321,167.438,220.358,166.592,222.892,164.153L222.892,166.791L229.001,166.791Z"
    />
</svg>
